<svg width="22" height="22" viewBox="0 0 22 22" fill="none" xmlns="http://www.w3.org/2000/svg">
<g id="Group 2297">
<circle id="Ellipse 552" cx="11" cy="11" r="6" fill="#95928B"/>
<path id="Polygon 1" d="M11 0L12.7321 3H9.26795L11 0Z" fill="#95928B"/>
<path id="Polygon 3" d="M22 11L19 12.7321L19 9.26795L22 11Z" fill="#95928B"/>
<path id="Polygon 5" d="M18.242 18.2423L14.896 17.3458L17.3455 14.8963L18.242 18.2423Z" fill="#95928B"/>
<path id="Polygon 8" d="M18.2423 3.41421L17.3458 6.76028L14.8963 4.31079L18.2423 3.41421Z" fill="#95928B"/>
<path id="Polygon 7" d="M3.41391 18.242L4.31049 14.896L6.75998 17.3455L3.41391 18.242Z" fill="#95928B"/>
<path id="Polygon 9" d="M3.41421 3.41391L6.76028 4.31049L4.31079 6.75998L3.41421 3.41391Z" fill="#95928B"/>
<path id="Polygon 2" d="M11 22L9.26795 19L12.7321 19L11 22Z" fill="#95928B"/>
<path id="Polygon 4" d="M2.62268e-07 11L3 9.26795L3 12.7321L2.62268e-07 11Z" fill="#95928B"/>
</g>
</svg>
